<svg xmlns="http://www.w3.org/2000/svg" width="437.008" height="133.334" viewBox="0 0 327.755 100" fill="#fff"><path d="M108.053 78.3h3.116l3.117-11.768h-2.7l-1.656 7.624a16.409 16.409 0 0 0-.282 1.79h-.067a16.658 16.658 0 0 0-.282-1.79l-1.657-7.624h-2.7l3.1 11.768zM124.7 66.536h-4.26V78.3H123v-4.355h1.706a3.447 3.447 0 0 0 3.813-3.746c0-2.287-1.4-3.663-3.83-3.663zm-.464 5.6H123v-3.8h1.226c1.044 0 1.6.6 1.6 1.856 0 1.276-.563 1.94-1.6 1.94zM130.4 78.3h6.43v-2.15h-3.862v-9.613H130.4V78.3zm8.012-1.874V78.3h7.64v-2.052h-4.74l4.525-7.856v-1.856H138.6v2.072h4.376l-4.574 7.822zm9.618 1.874h2.37v-6.13l-.033-2.27h.033a6.908 6.908 0 0 0 .6 1.973l3.15 6.43h2.586V66.536h-2.354v5.735l.033 2.353h-.033a6.768 6.768 0 0 0-.58-1.955l-2.967-6.133h-2.8V78.3zm13.955 0V66.536h-2.57V78.3zm-56.65-23.543v1.873h7.64v-2.056h-4.74l4.524-7.856v-1.856h-7.226v2.072h4.375l-4.574 7.823zm16.8-12.514h-2.27l-1.508 1.906h1.973l1.806-1.906zm-.5 14.387h2.586l-3.3-11.768h-3.132l-3.313 11.768h2.585l.664-2.735h3.248l.663 2.735zm-3.464-4.575l.83-3.464a13.249 13.249 0 0 0 .332-1.69h.033l.332 1.7.828 3.464zm12.192-7.193H126.1V56.63h2.57v-4.36h1.707a3.447 3.447 0 0 0 3.813-3.746c0-2.287-1.4-3.663-3.83-3.663zm-.464 5.6h-1.227v-3.8h1.228c1.044 0 1.6.6 1.6 1.857 0 1.276-.563 1.94-1.6 1.94zm11.9 6.166h2.586l-3.3-11.768h-3.132l-3.313 11.77h2.586l.663-2.735h3.248l.663 2.735zm-3.464-4.575l.83-3.464a13.425 13.425 0 0 0 .332-1.69h.033l.332 1.7.828 3.464zm7.932 4.575h3.8c3.066 0 4.956-1.724 4.956-5.9 0-4.128-1.873-5.868-4.923-5.868h-3.83v11.77zm2.57-1.873v-8.02h1.244c1.54 0 2.27 1.06 2.27 3.995 0 2.585-.778 4.027-2.287 4.027zm12.617 2.155c2.916 0 4.673-1.774 4.673-6.166 0-4.4-1.757-6.183-4.673-6.183-2.934 0-4.7 1.774-4.7 6.183 0 4.392 1.757 6.166 4.7 6.166zm0-2.023c-1.293 0-2.04-.96-2.04-4.143 0-3.216.746-4.144 2.04-4.144 1.276 0 2 .928 2 4.144 0 3.182-.73 4.143-2 4.143zm13.9-12.563h-1.922l-.96 1.177-.98-1.177h-1.922l1.575 1.907h2.635l1.574-1.907zm-2.85 14.586c2.47 0 4.077-1.476 4.276-4.26l-2.536-.547c-.117 2.005-.713 2.735-1.724 2.735-1.276 0-1.972-.962-1.972-4.1s.746-4.095 1.956-4.095c1.077 0 1.623.6 1.707 2.718l2.552-.464c-.067-2.883-1.674-4.3-4.243-4.3-2.818 0-4.608 1.6-4.608 6.166 0 4.64 1.608 6.166 4.592 6.166zm9.037-2.22v-3.13h3.928v-1.923h-3.928V46.8h4.17v-1.94h-6.746v11.77h6.862V54.7zm10.1 2.22c2.586 0 4.077-1.526 4.077-3.664a3.19 3.19 0 0 0-2.47-3.4l-1.7-.564c-.928-.314-1.36-.83-1.36-1.54a1.251 1.251 0 0 1 1.401-1.241c1.012 0 1.8.646 2.122 2.1l2.1-1.045c-.48-2.12-2-2.983-4.1-2.983-2.32 0-3.962 1.276-3.962 3.43a3.281 3.281 0 0 0 2.453 3.4l1.7.53c.977.3 1.292.762 1.292 1.558a1.3 1.3 0 0 1-1.441 1.359c-1.194 0-1.874-.73-2.254-2.27l-2.255.994a4.143 4.143 0 0 0 4.409 3.332zm12.118-.282h2.85l-3.28-7.044 3.132-4.724h-2.818l-3.232 5.32v-5.32h-2.57v11.77h2.57V53.2l1.128-1.74 2.22 5.172zM214.6 42.24h-2.278l-1.508 1.906h1.972l1.807-1.906zm-3.564 12.448v-3.13h3.928v-1.923h-3.928V46.8h4.166v-1.94h-6.746v11.77h6.86V54.7zm10.823-9.83v8.27c0 2.32 1.54 3.78 4.193 3.78 2.668 0 4.193-1.46 4.193-3.78v-8.27h-2.552v8.155a1.638 1.638 0 1 1-3.265 0V44.86zm10.98 11.77h2.37V50.5l-.033-2.27h.033a6.89 6.89 0 0 0 .6 1.972l3.15 6.43h2.585v-11.77H239.2V50.6l.033 2.354h-.033a6.784 6.784 0 0 0-.58-1.956l-2.967-6.132h-2.8V56.63zm13.955 0V44.862h-2.57V56.63zm4.892 0h3.115l3.116-11.768h-2.7l-1.658 7.624a17.178 17.178 0 0 0-.282 1.79h-.066a16.878 16.878 0 0 0-.281-1.79l-1.658-7.624h-2.7l3.116 11.768zm10.594-1.94v-3.133h3.928v-1.923h-3.928V46.8h4.176v-1.94H259.7v11.77h6.86V54.7zm12.15 1.94h2.75l-2.12-5.122a3.082 3.082 0 0 0 1.889-3.116c0-2.17-1.193-3.53-3.928-3.53h-4.193v11.77h2.573v-4.658h1.293l1.74 4.658zm-3.03-6.33v-3.665h1.242c1.144 0 1.608.6 1.608 1.757 0 1.194-.48 1.907-1.608 1.907zm7.438 4.458v1.872h7.64v-2.056h-4.74l4.524-7.856V44.86h-7.226v2.072h4.376l-4.575 7.823zm12.18 1.873V44.86h-2.57v11.77zm10.02-11.768H292.8v2.1h2.834v9.667h2.57v-9.663h2.833v-2.1zm4.5 11.768h2.585v-4.245l3.2-7.524h-2.7l-1.508 4.127a6.034 6.034 0 0 0-.249 1.21h-.05a7.508 7.508 0 0 0-.249-1.21l-1.54-4.127h-2.7l3.216 7.524v4.244zm-192.86-31.47v-1.972h-6.746v11.768h2.568v-5h3.9v-1.94h-3.9V25.16zm7.85 9.8h2.585l-3.3-11.768h-3.133l-3.315 11.768h2.586l.662-2.735h3.25l.663 2.735zm-3.464-4.575l.83-3.464a13.241 13.241 0 0 0 .331-1.691h.033l.332 1.7.83 3.464zm13.85 4.575h2.85l-3.282-7.044 3.133-4.724H130.8l-3.23 5.32v-5.32H125v11.764h2.57v-3.43l1.126-1.74 2.22 5.17zm4.568-11.768v8.27c0 2.32 1.54 3.78 4.194 3.78s4.192-1.46 4.192-3.78v-8.275h-2.552v8.154a1.638 1.638 0 1 1-3.265 0v-8.154zM146.47 34.96h6.432V32.8h-3.862v-9.612h-2.57v11.768zm14.614-11.768h-8.238v2.105h2.835v9.663h2.57v-9.667h2.834v-2.105zm7.2 11.768h2.585l-3.3-11.768h-3.133l-3.314 11.764h2.586l.662-2.735h3.25l.663 2.735zm-3.464-4.575l.828-3.464a13.06 13.06 0 0 0 .332-1.691h.033l.332 1.7.83 3.464zm18.728 4.575h2.586l-3.3-11.768H179.7l-3.314 11.768h2.585l.663-2.735h3.25l.662 2.735zm-3.464-4.575l.83-3.464a13.407 13.407 0 0 0 .332-1.691h.033l.33 1.7.83 3.464zm12.192-7.193h-4.26v11.764h2.57V30.6h1.706a3.447 3.447 0 0 0 3.813-3.746c0-2.287-1.4-3.663-3.83-3.663zm-.464 5.6h-1.226V25h1.226c1.044 0 1.6.6 1.6 1.856 0 1.276-.563 1.94-1.6 1.94zm6.15 6.166h6.43V32.8h-3.86v-9.612h-2.57v11.768zm10.874 0v-11.77h-2.57v11.768zm8.584 0h2.85L217 27.914l3.132-4.724h-2.82l-3.23 5.32v-5.3h-2.57v11.766h2.57v-3.43l1.126-1.74 2.222 5.17zm8.454.282c2.917 0 4.674-1.774 4.674-6.166 0-4.4-1.757-6.182-4.674-6.182-2.934 0-4.7 1.773-4.7 6.182 0 4.392 1.757 6.166 4.7 6.166zm0-2.022c-1.293 0-2.04-.962-2.04-4.144 0-3.215.746-4.143 2.04-4.143 1.276 0 2.006.928 2.006 4.143 0 3.182-.73 4.144-2.006 4.144zm8.782 1.74h3.116l3.116-11.768h-2.7l-1.658 7.624a16.623 16.623 0 0 0-.281 1.79h-.067a17.141 17.141 0 0 0-.281-1.79l-1.658-7.624h-2.7l3.115 11.768zm13.628 0h2.585l-3.3-11.768h-3.133l-3.315 11.766h2.586l.663-2.735h3.248l.664 2.735zm-3.464-4.575l.83-3.464a13.25 13.25 0 0 0 .33-1.691h.034l.33 1.7.83 3.464zm7.932 4.575h2.37v-6.134l-.034-2.272h.034a6.877 6.877 0 0 0 .6 1.973l3.148 6.43h2.586V23.188H259.1v5.735l.033 2.353h-.033a6.8 6.8 0 0 0-.581-1.955l-2.967-6.133h-2.8v11.768zm14-12.483h1.973l1.806-1.905h-2.27l-1.5 1.905zm-.3 12.48h2.586v-4.243l3.2-7.525h-2.7l-1.5 4.127a6.088 6.088 0 0 0-.248 1.21h-.05a7.6 7.6 0 0 0-.249-1.21l-1.54-4.127h-2.7l3.216 7.525v4.243zm11.168.282c2.47 0 4.077-1.476 4.276-4.26l-2.536-.547c-.116 2-.713 2.735-1.724 2.735-1.276 0-1.972-.962-1.972-4.1s.746-4.093 1.956-4.093c1.077 0 1.624.6 1.707 2.718l2.552-.464c-.066-2.884-1.674-4.3-4.243-4.3-2.818 0-4.608 1.592-4.608 6.166 0 4.64 1.608 6.166 4.592 6.166zm14.954-12.05H290v4.8h-3.348v-4.8h-2.57v11.768h2.57v-5H290v5h2.57V23.188zm9.3 11.768h3.116l3.116-11.768h-2.7l-1.657 7.624a16.914 16.914 0 0 0-.282 1.79h-.066a16.658 16.658 0 0 0-.282-1.79l-1.657-7.624h-2.7l3.116 11.768zm12.7-12.4l1.574-1.906h-1.922l-.96 1.177-.978-1.177h-1.923l1.575 1.906zm-2.1 10.458v-3.13h3.928V27.96h-3.928v-2.835h4.177v-1.94h-6.746v11.768h6.862v-1.94zM319 34.956h3.8c3.066 0 4.955-1.724 4.955-5.9 0-4.126-1.872-5.867-4.922-5.867H319v11.767zm2.57-1.873V25.06h1.243c1.54 0 2.27 1.06 2.27 3.994 0 2.586-.78 4.028-2.287 4.028zM66.615 38.46v23.093L86.606 50l-20-11.54zM0 100l29.076-16.78c-8.125-2.715-13.968-8.756-14.07-19.2V29.474h14.947v33.8c.23 6.876 3.822 11.215 10.855 11.215a12.35 12.35 0 0 0 5.131-1.013l1.57-.907c2.62-1.9 4-5.127 4.143-9.3V29.84h.033L0 0v100z"/></svg>