<svg xmlns="http://www.w3.org/2000/svg" viewBox="0 0 218 100" fill="#fff"><path d="M66.6 38.5v23.1l20-11.6-20-11.5zM0 100l29.1-16.8C21 80.5 15.1 74.5 15 64V29.5h15v33.8c.2 6.9 3.8 11.2 10.9 11.2 2 0 3.7-.4 5.1-1l1.6-.9c2.6-1.9 4-5.1 4.1-9.3V29.8L0 0v100zm108.1-21.7h3.1l3.1-11.8h-2.7l-1.7 7.6-.3 1.8h-.1c0-.5-.1-1-.3-1.8l-1.7-7.6h-2.7l3.3 11.8zm16.6-11.8h-4.3v11.8h2.6v-4.4h1.7c2.4 0 3.8-1.4 3.8-3.7s-1.4-3.7-3.8-3.7h0zm-.5 5.6H123v-3.8h1.2c1 0 1.6.6 1.6 1.9s-.5 1.9-1.6 1.9h0zm6.2 6.2h6.4v-2.2H133v-9.6h-2.6v11.8zm8-1.9v1.9h7.6v-2.1h-4.7l4.5-7.9v-1.9h-7.2v2.1h4.4l-4.6 7.9zm9.6 1.9h2.4v-8.4c.1.7.3 1.3.6 2l3.1 6.4h2.6V66.5h-2.4v8.1a5.87 5.87 0 0 0-.6-2l-3-6.1H148v11.8zm14 0V66.5h-2.6v11.8h2.6zm-56.2-33.4v8.3c0 2.3 1.5 3.8 4.2 3.8s4.2-1.5 4.2-3.8v-8.3h-2.6V53c0 1.1-.6 1.8-1.6 1.8s-1.6-.7-1.6-1.8v-8.2h-2.6v.1zm11 11.7h2.4v-8.4c.1.7.3 1.3.6 2l3.1 6.4h2.6V44.9h-2.4V53a5.87 5.87 0 0 0-.6-2l-3-6.1h-2.8v11.7h.1zm13.9 0V44.9h-2.6v11.8h2.6v-.1zm4.9 0h3.1l3.1-11.8h-2.7l-1.7 7.6-.3 1.8h-.1c0-.5-.1-1-.3-1.8l-1.7-7.6h-2.7l3.3 11.8zm10.6-1.9v-3.1h3.9v-1.9h-3.9v-2.8h4.2V45h-6.7v11.8h6.9v-1.9h-4.4v-.2zm12.2 1.9h2.8l-2.1-5.1c1.2-.5 1.9-1.6 1.9-3.1 0-2.2-1.2-3.5-3.9-3.5h-4.2v11.8h2.6V52h1.3l1.6 4.6zm-3.1-6.3v-3.7h1.2c1.1 0 1.6.6 1.6 1.8s-.5 1.9-1.6 1.9h-1.2zm7.5 4.5v1.9h7.6v-2.1h-4.7l4.5-7.9v-1.9H163v2.1h4.4l-4.6 7.9zm12.1 1.8V44.9h-2.6v11.8h2.6v-.1zM185 44.9h-8.2V47h2.8v9.7h2.6V47h2.8v-2.1zm7.2 11.7h2.6l-3.3-11.8h-3.1L185 56.6h2.6l.7-2.7h3.2l.7 2.7zm-3.5-4.5l.8-3.5.3-1.7.3 1.7.8 3.5h-2.2zm-83.4-19V35h7.6v-2.1h-4.7l4.5-7.9v-1.9h-7.2v2.1h4.4l-4.6 7.9zm16.8-12.5h-2.3l-1.5 1.9h2l1.8-1.9zm-.5 14.4h2.6l-3.3-11.8h-3.1L114.5 35h2.6l.7-2.7h3.2l.6 2.7zm-3.4-4.6l.8-3.5.3-1.7.3 1.7.8 3.5h-2.2zm12.2-7.2h-4.3V35h2.6v-4.4h1.7c2.4 0 3.8-1.4 3.8-3.7s-1.4-3.7-3.8-3.7h0zm-.5 5.6h-1.2V25h1.2c1 0 1.6.6 1.6 1.9 0 1.2-.6 1.9-1.6 1.9h0zm11.9 6.2h2.6l-3.3-11.8H138L134.6 35h2.6l.7-2.7h3.2l.7 2.7zm-3.5-4.6l.8-3.5.3-1.7.3 1.7.8 3.5h-2.2zm8 4.6h3.8c3.1 0 5-1.7 5-5.9 0-4.1-1.9-5.9-4.9-5.9h-3.8V35h-.1zm2.5-1.9v-8h1.2c1.5 0 2.3 1.1 2.3 4 0 2.6-.8 4-2.3 4h-1.2zm12.6 2.1c2.9 0 4.7-1.8 4.7-6.2s-1.8-6.2-4.7-6.2-4.7 1.8-4.7 6.2c.1 4.5 1.8 6.2 4.7 6.2h0zm0-2c-1.3 0-2-1-2-4.1 0-3.2.7-4.1 2-4.1s2 .9 2 4.1-.7 4.1-2 4.1h0zm13.9-12.5h-1.9l-1 1.2-1-1.2h-1.9l1.6 1.9h2.6l1.6-1.9zm-2.8 14.5c2.5 0 4.1-1.5 4.3-4.3l-2.5-.5c-.1 2-.7 2.7-1.7 2.7-1.3 0-2-1-2-4.1s.7-4.1 2-4.1c1.1 0 1.6.6 1.7 2.7l2.6-.5c-.1-2.9-1.7-4.3-4.2-4.3-2.8 0-4.6 1.6-4.6 6.2-.2 4.7 1.4 6.2 4.4 6.2h0zm9-2.2v-3.1h3.9V28h-3.9v-2.8h4.2v-1.9H179V35h6.9v-2h-4.4zm10.1 2.2c2.6 0 4.1-1.5 4.1-3.7 0-1.8-.7-2.8-2.5-3.4l-1.7-.6c-.9-.3-1.4-.8-1.4-1.5s.5-1.2 1.4-1.2c1 0 1.8.6 2.1 2.1l2.1-1c-.5-2.1-2-3-4.1-3-2.3 0-4 1.3-4 3.4 0 1.7.8 2.9 2.5 3.4l1.7.5c1 .3 1.3.8 1.3 1.6s-.5 1.4-1.4 1.4c-1.2 0-1.9-.7-2.3-2.3l-2.3 1c.7 2.1 2.1 3.3 4.5 3.3h0zm12.1-.2h2.9l-3.3-7 3.1-4.7h-2.8l-3.2 5.3v-5.3h-2.6V35h2.6v-3.4l1.1-1.7 2.2 5.1zm12-14.4h-2.3l-1.5 1.9h2l1.8-1.9zm-.5 14.4h2.6l-3.3-11.8h-3.1L208.1 35h2.6l.7-2.7h3.2l.6 2.7zm-3.5-4.6l.8-3.5.3-1.7.3 1.7.8 3.5h-2.2z"/></svg>