<svg xmlns="http://www.w3.org/2000/svg" width="94.181" height="100" fill="#fff"><path d="M69.1 16.35a14.1 14.1 0 0 0-5.943 2.031l-.533.348a.8.8 0 1 0 .878 1.335 10.511 10.511 0 0 1 1.715-.967l4.1-1.14a1.843 1.843 0 0 1 .875.075c3.783 1.012 6.7 3.153 7.7 7.03a9.4 9.4 0 0 1-8.405 12.062c-3.294.245-6.62.037-9.932.05l-18.935.1-15.675.005a12.481 12.481 0 0 1-10.4-5.249c-4.133-5.6-2.042-16.14 7.316-18.065.16-.033.326-.042.53-.067A13.985 13.985 0 0 0 27.864 25a.973.973 0 0 0 1.331.085.921.921 0 0 0-.139-1.514 12.48 12.48 0 0 1-4.208-5.871 11.777 11.777 0 0 1 .627-8.744c1.866-4.44 4.96-7.564 9.78-8.582 5.762-1.217 10.552.55 14.325 5.07a1.44 1.44 0 0 1 .109.188 13.6 13.6 0 0 0-4.631 4.117 13.733 13.733 0 0 0-2.1 11.7c.03.124.073.244.1.367a.777.777 0 0 0 1 .648c.534-.132.665-.538.55-1.045-.136-.6-.314-1.2-.393-1.8a12.281 12.281 0 0 1 8.228-13.454A12.836 12.836 0 0 1 68 12.376a10.654 10.654 0 0 1 1.1 3.975zM20.654 90.9l2.142.022a.765.765 0 0 1 .484.446l1.92 4.987a.655.655 0 0 0 .281.365v-5.78h1.73v8.87c-.714 0-1.43.03-2.14-.024-.163-.012-.368-.3-.445-.5L22.67 94.03a.82.82 0 0 0-.288-.429v6.164h-1.73zm-.274-49.758V52.72h-2.45v-8.778l-2.012 1.24.016-1.966c.01-.162.193-.34.338-.46l1.734-1.386a.855.855 0 0 1 .426-.218l1.947-.01zM52.5 71.37l.013-2.02c.006-.13.154-.278.272-.375q.9-.747 1.83-1.467a.728.728 0 0 1 .389-.165l1.94-.008v11.553h-2.5v-8.73zm-14.84-5.255H35.2v-8.8l-2 1.26.016-2.058c.01-.14.217-.28.355-.394q.83-.684 1.68-1.348a.851.851 0 0 1 .421-.227l2-.01zM56.9 57.68l.017-1.932a.953.953 0 0 1 .366-.517l1.673-1.355c.1-.088.237-.216.36-.22l2.053-.01V65.2h-2.5v-8.74zm-15.708-11.5L39.25 47.4l.013-2.107c0-.1.167-.222.28-.3.328-.234.764-.383.986-.7.82-1.13 1.964-.944 3.147-.87V54.9h-2.483zM16.324 98.414h3v1.337h-4.838v-8.837h4.744v1.347h-2.9v2.17h2.7v1.364h-2.7zm30.153 1.356H44.6v-7.393h-2.03V90.94h5.922v1.4h-2.016zm25.76-8.86H73.3v.695l.005 5.035a5.7 5.7 0 0 0 .1 1.074 1.374 1.374 0 0 0 1.57 1.317 1.336 1.336 0 0 0 1.5-1.384l.112-4.2V90.93h1.047c.023.03.07.062.07.095l-.087 6.62A2.326 2.326 0 0 1 75 99.988c-1.6.02-2.607-.683-2.715-2.238-.154-2.2-.094-4.413-.12-6.62a.674.674 0 0 1 .072-.219zm-1.907 2.464H69.3l-.07-.423c-.07-.836-.33-1.133-1.086-1.23a1.375 1.375 0 0 0-1.641.966 7.82 7.82 0 0 0-.156 1.64l.048 3.055c.072 1.154.534 1.637 1.448 1.65s1.354-.465 1.517-1.6a1.448 1.448 0 0 1 .06-.2l.37-.046h.616a2.171 2.171 0 0 1-1.849 2.765c-2.082.28-3.192-.573-3.307-2.66a34.589 34.589 0 0 1 .009-4.136 2.768 2.768 0 0 1 4.271-2.1 2.181 2.181 0 0 1 .792 2.321zm16.147-.014l-.037-.278c-.07-1-.4-1.36-1.283-1.38a1.331 1.331 0 0 0-1.518 1.286l-.02 4.5c.056 1.115.566 1.544 1.477 1.533.844-.01 1.3-.5 1.464-1.526l.044-.3.56-.03c.166 0 .332.02.493.033a2.251 2.251 0 0 1-2.244 2.768c-1.836.094-2.8-.64-2.932-2.472a27.7 27.7 0 0 1 .015-4.572 2.766 2.766 0 0 1 4.3-1.836 2.228 2.228 0 0 1 .765 2.254zm3.236 5.44h4.468v.96h-5.463a2.5 2.5 0 0 1 .334-1.874l3.567-5.425.34-.544h-4.11v-1h5.2a2.042 2.042 0 0 1-.246 1.62l-4.09 6.263zm-30.186 0h4.447v.96h-5.45a2.568 2.568 0 0 1 .349-1.918L62.78 91.9h-4.14v-.977h5.2a1.875 1.875 0 0 1-.237 1.609l-3.523 5.38-.555.887zm-2.21.966h-1.063v-1.2h1.063zm23.344 0H79.6v-1.2h1.064zm-34.437-29.11a2.336 2.336 0 0 0-2.187-2.072c-2.65-.268-3.793.392-4.08 2.92l-.182 2.813.146 2.97a4.465 4.465 0 0 0 .176.872c.45 1.658 1.346 2.27 3.275 2.248a2.648 2.648 0 0 0 2.873-2.346 20.467 20.467 0 0 0-.022-7.407zm-2.073 3.758H44.1l-.008 2.74a2.091 2.091 0 0 1-.193.986 1.114 1.114 0 0 1-.756.506.918.918 0 0 1-.7-.485 3.541 3.541 0 0 1-.241-1.3l-.005-4.908a5.477 5.477 0 0 1 .13-1.009.79.79 0 0 1 .855-.695.739.739 0 0 1 .8.677l.164 2.408c.022.357.006.72.006 1.08zm25.638-8.73a2.286 2.286 0 0 0-2.066-1.963 6.641 6.641 0 0 0-1.395-.043 2.518 2.518 0 0 0-2.715 2.534c-.154 1.112-.192 2.24-.26 3.08l.147 2.954a3.882 3.882 0 0 0 .879 2.408 3.421 3.421 0 0 0 3.495.753 2.461 2.461 0 0 0 1.948-2.127 20.44 20.44 0 0 0-.033-7.595zm-2.038 3.864h-.06l-.008 2.732a2.075 2.075 0 0 1-.191.983 1.111 1.111 0 0 1-.759.5.931.931 0 0 1-.695-.477 2.863 2.863 0 0 1-.232-1.172l-.007-5.15a2.063 2.063 0 0 1 .172-.988 1.159 1.159 0 0 1 .772-.569 1 1 0 0 1 .779.548 8.834 8.834 0 0 1 .221 1.88c.032.566.007 1.14.007 1.712zM52.4 56.567c-.3-1.928-1.048-2.526-2.986-2.62a6.49 6.49 0 0 0-.762.037 2.269 2.269 0 0 0-2.4 1.962c-.26 1.28-.33 2.6-.46 3.715l.328 3.625a2.754 2.754 0 0 0 3.028 2.558c1.863.018 2.892-.725 3.214-2.493a20.408 20.408 0 0 0 .037-6.784zM50.1 63.2c-.037.492-.234.9-.854.9s-.816-.438-.834-.923l-.122-5.33a9.413 9.413 0 0 1 .143-1.513.748.748 0 0 1 .8-.669.736.736 0 0 1 .842.688l.208 3.378-.185 3.47zm-21.5-7.538a2.343 2.343 0 0 0-2.351-2.12 5.388 5.388 0 0 0-.889-.041c-1.853.058-2.7.748-2.963 2.575-.166 1.1-.2 2.237-.3 3.385l.314 3.4a2.693 2.693 0 0 0 2.919 2.516c1.988.02 2.987-.645 3.308-2.43a20.061 20.061 0 0 0-.038-7.284zm-2.22 7.1c-.04.5-.26.918-.86.905s-.8-.45-.83-.94q-.1-2.377-.126-4.76a16.714 16.714 0 0 1 .141-2.022.757.757 0 0 1 .821-.718.741.741 0 0 1 .837.7l.233 3.393-.212 3.444zm43.857-18.78a2.39 2.39 0 0 0-2.261-2.067c-2.278-.32-3.562.426-3.906 2.48a21.16 21.16 0 0 0-.023 6.725c.3 1.912 1.328 2.673 3.27 2.65a2.79 2.79 0 0 0 3.053-2.753c.156-1.046.167-2.112.262-3.44l-.395-3.592zm-2.16 6.974a1.035 1.035 0 0 1-.157.6c-.2.213-.484.472-.73.468a.935.935 0 0 1-.709-.485 4.243 4.243 0 0 1-.223-1.43l.024-5.338a1.685 1.685 0 0 1 .039-.315c.1-.508.332-.87.922-.846a.816.816 0 0 1 .824.871l.178 3.2-.17 3.275zm-33.545-8.54c-.266-2.014-1.1-2.723-3.125-2.758-1.955-.034-2.974.626-3.15 2.55a50.9 50.9 0 0 0-.034 6.663 3.24 3.24 0 0 0 .808 1.813c.955 1.106 2.277 1.02 3.546.713a2.6 2.6 0 0 0 1.918-2.381c.17-1.108.2-2.236.283-3.3l-.245-3.3zm-2.318 6.467c-.01.467-.2.92-.823.935s-.83-.4-.87-.886l-.2-3.356h.108l.008-2.86a1.7 1.7 0 0 1 .187-.854.983.983 0 0 1 .679-.443 1.323 1.323 0 0 1 .779.4.879.879 0 0 1 .173.593l-.04 6.47zm25.606-6.5c-.14-1.973-1.2-2.76-3.2-2.724-2.033.038-2.9.8-3.132 2.826l-.23 3.14.244 3.2a4.12 4.12 0 0 0 .227.858 2.52 2.52 0 0 0 1.314 1.565 3.183 3.183 0 0 0 4.8-2.588 42.712 42.712 0 0 0-.015-6.288zm-2.247 6.1a1.714 1.714 0 0 1-.2.852 1.1 1.1 0 0 1-.737.435.935.935 0 0 1-.676-.426 1.848 1.848 0 0 1-.2-.916l.04-6.028a1.323 1.323 0 0 1 .566-.95c.552-.314 1.118.117 1.2.877l.12 2.537v.826h.03l-.134 2.793zM34.57 92.64a2.032 2.032 0 0 0-1.934-1.672l-3.7-.016v8.836l3.352-.01a2.415 2.415 0 0 0 2.347-1.906 10.841 10.841 0 0 0-.065-5.231zm-1.644 4.108c-.14 1.53-.585 1.833-2.182 1.6v-6c1.505-.3 2.13.13 2.212 1.6a19.144 19.144 0 0 1-.03 2.79zM6.077 95.5l-.093-1.844c-.178-2.157-1.163-3.008-3.336-2.9a2.361 2.361 0 0 0-2.558 2.24 30.538 30.538 0 0 0 .01 4.82 2.159 2.159 0 0 0 1.947 2.058 6.311 6.311 0 0 0 1.836.008 2.138 2.138 0 0 0 1.9-1.73c.2-.864.233-1.76.34-2.642zM3.97 97.756a.9.9 0 0 1-1.006.866.949.949 0 0 1-.98-.9l-.24-2.386.24-2.356a.937.937 0 0 1 .983-.892.9.9 0 0 1 1.006.861q.083 2.4-.003 4.807zM40.624 90.9c-.64 0-1.237.04-1.826-.012-.517-.045-.688.184-.8.638l-2.123 7.724c-.046.17-.065.346-.1.528h1.743c.208-.654.227-1.533.65-1.824.468-.322 1.306-.105 1.983-.122.02 0 .05-.01.062 0 .16.123.4.22.457.38.18.5.293 1.046.43 1.566h1.948l-2.413-8.88zm-2.193 5.537l.794-3.6.114-.007.85 3.6zM52.868 90.9c-.68 0-1.3.028-1.9-.01-.423-.025-.588.138-.693.534l-2.3 8.36h1.78c.225-.677.255-1.533.68-1.84s1.266-.077 1.92-.12c.4-.027.557.16.63.525l.352 1.422h1.958l-2.417-8.87zm-2.2 5.54l.8-3.635h.106l.846 3.63zM13.1 92.4a1.632 1.632 0 0 0-1.583-1.424l-3.888-.018v8.8h1.8V96.2l1.952-.094a1.831 1.831 0 0 0 1.745-1.516 6.624 6.624 0 0 0-.026-2.19zm-1.9 1.913c-.416.7-1.1.463-1.756.457v-2.463c.613 0 1.278-.27 1.7.327a1.474 1.474 0 0 1 .045 1.679z"/></svg>