<svg xmlns="http://www.w3.org/2000/svg" width="17.117" height="20"><path d="M9.436 2.928l1.3-1.3a.95.95 0 0 0 0-1.345.95.95 0 0 0-.672-.279.95.95 0 0 0-.672.279L6.407 3.267c-.012.012-.02.026-.03.038a1.28 1.28 0 0 0-.063.077l-.028.035c-.008.012-.014.028-.022.04s-.03.053-.043.08a.92.92 0 0 0-.035.086.87.87 0 0 0-.026.087c-.008.03-.014.06-.018.092s-.007.06-.008.088v.047c0 .016 0 .036.005.054s0 .03 0 .047.006.025.008.037l.02.1.025.084a.9.9 0 0 0 .036.085.94.94 0 0 0 .045.086l.048.07a.96.96 0 0 0 .067.082c.008.01.014.02.023.028L9.4 7.6a.95.95 0 0 0 1.634-.405.95.95 0 0 0-.293-.939L9.314 4.83c3.555.406 6.152 3.55 5.88 7.118s-3.315 6.282-6.89 6.146S1.9 15.018 1.902 11.44a.95.95 0 0 0-.95-.907.95.95 0 0 0-.95.907 8.56 8.56 0 0 0 17.098.585 8.56 8.56 0 0 0-7.662-9.099z" fill="#fff"/></svg>